<mxfile host="Electron" modified="2024-02-16T11:35:08.497Z" agent="Mozilla/5.0 (Windows NT 10.0; Win64; x64) AppleWebKit/537.36 (KHTML, like Gecko) draw.io/21.7.5 Chrome/114.0.5735.289 Electron/25.8.1 Safari/537.36" etag="gT5PJHVX4FrX4Y-g9hXu" version="21.7.5" type="device">
  <diagram name="Seite-1" id="A2XNjmKyw8WybpLcMGSi">
    <mxGraphModel dx="1222" dy="1022" grid="1" gridSize="10" guides="1" tooltips="1" connect="1" arrows="1" fold="1" page="1" pageScale="1" pageWidth="827" pageHeight="1169" math="0" shadow="0">
      <root>
        <mxCell id="0" />
        <mxCell id="1" parent="0" />
        <mxCell id="zV2OYzbl4k-OQZT1_3WD-33" value="" style="group" vertex="1" connectable="0" parent="1">
          <mxGeometry x="3" y="320" width="160" height="160" as="geometry" />
        </mxCell>
        <mxCell id="zV2OYzbl4k-OQZT1_3WD-20" value="" style="whiteSpace=wrap;html=1;aspect=fixed;" vertex="1" parent="zV2OYzbl4k-OQZT1_3WD-33">
          <mxGeometry width="160" height="160" as="geometry" />
        </mxCell>
        <mxCell id="zV2OYzbl4k-OQZT1_3WD-21" value="" style="endArrow=none;html=1;rounded=0;entryX=0.25;entryY=0;entryDx=0;entryDy=0;exitX=0.25;exitY=1;exitDx=0;exitDy=0;" edge="1" parent="zV2OYzbl4k-OQZT1_3WD-33">
          <mxGeometry width="50" height="50" relative="1" as="geometry">
            <mxPoint x="50" y="160" as="sourcePoint" />
            <mxPoint x="50" as="targetPoint" />
          </mxGeometry>
        </mxCell>
        <mxCell id="zV2OYzbl4k-OQZT1_3WD-22" value="" style="endArrow=none;html=1;rounded=0;entryX=0.25;entryY=0;entryDx=0;entryDy=0;exitX=0.25;exitY=1;exitDx=0;exitDy=0;" edge="1" parent="zV2OYzbl4k-OQZT1_3WD-33">
          <mxGeometry width="50" height="50" relative="1" as="geometry">
            <mxPoint x="110" y="160" as="sourcePoint" />
            <mxPoint x="110" as="targetPoint" />
          </mxGeometry>
        </mxCell>
        <mxCell id="zV2OYzbl4k-OQZT1_3WD-23" value="" style="endArrow=none;html=1;rounded=0;entryX=1;entryY=0.25;entryDx=0;entryDy=0;exitX=0;exitY=0.25;exitDx=0;exitDy=0;" edge="1" parent="zV2OYzbl4k-OQZT1_3WD-33">
          <mxGeometry width="50" height="50" relative="1" as="geometry">
            <mxPoint y="50" as="sourcePoint" />
            <mxPoint x="160" y="50" as="targetPoint" />
          </mxGeometry>
        </mxCell>
        <mxCell id="zV2OYzbl4k-OQZT1_3WD-24" value="" style="endArrow=none;html=1;rounded=0;entryX=1;entryY=0.25;entryDx=0;entryDy=0;exitX=0;exitY=0.25;exitDx=0;exitDy=0;" edge="1" parent="zV2OYzbl4k-OQZT1_3WD-33">
          <mxGeometry width="50" height="50" relative="1" as="geometry">
            <mxPoint y="110" as="sourcePoint" />
            <mxPoint x="160" y="110" as="targetPoint" />
          </mxGeometry>
        </mxCell>
        <mxCell id="zV2OYzbl4k-OQZT1_3WD-25" value="1" style="text;html=1;strokeColor=none;fillColor=none;align=center;verticalAlign=middle;whiteSpace=wrap;rounded=0;" vertex="1" parent="zV2OYzbl4k-OQZT1_3WD-33">
          <mxGeometry width="50" height="50" as="geometry" />
        </mxCell>
        <mxCell id="zV2OYzbl4k-OQZT1_3WD-26" value="2" style="text;html=1;strokeColor=none;fillColor=none;align=center;verticalAlign=middle;whiteSpace=wrap;rounded=0;" vertex="1" parent="zV2OYzbl4k-OQZT1_3WD-33">
          <mxGeometry x="110" width="50" height="50" as="geometry" />
        </mxCell>
        <mxCell id="zV2OYzbl4k-OQZT1_3WD-27" value="0" style="text;html=1;strokeColor=none;fillColor=none;align=center;verticalAlign=middle;whiteSpace=wrap;rounded=0;" vertex="1" parent="zV2OYzbl4k-OQZT1_3WD-33">
          <mxGeometry x="55" y="55" width="50" height="50" as="geometry" />
        </mxCell>
        <mxCell id="zV2OYzbl4k-OQZT1_3WD-28" value="0" style="text;html=1;strokeColor=none;fillColor=none;align=center;verticalAlign=middle;whiteSpace=wrap;rounded=0;" vertex="1" parent="zV2OYzbl4k-OQZT1_3WD-33">
          <mxGeometry y="55" width="50" height="50" as="geometry" />
        </mxCell>
        <mxCell id="zV2OYzbl4k-OQZT1_3WD-29" value="2" style="text;html=1;strokeColor=none;fillColor=none;align=center;verticalAlign=middle;whiteSpace=wrap;rounded=0;" vertex="1" parent="zV2OYzbl4k-OQZT1_3WD-33">
          <mxGeometry x="110" y="50" width="50" height="55" as="geometry" />
        </mxCell>
        <mxCell id="zV2OYzbl4k-OQZT1_3WD-30" value="0" style="text;html=1;strokeColor=none;fillColor=none;align=center;verticalAlign=middle;whiteSpace=wrap;rounded=0;" vertex="1" parent="zV2OYzbl4k-OQZT1_3WD-33">
          <mxGeometry y="110" width="50" height="50" as="geometry" />
        </mxCell>
        <mxCell id="zV2OYzbl4k-OQZT1_3WD-31" value="0" style="text;html=1;strokeColor=none;fillColor=none;align=center;verticalAlign=middle;whiteSpace=wrap;rounded=0;" vertex="1" parent="zV2OYzbl4k-OQZT1_3WD-33">
          <mxGeometry x="55" y="110" width="50" height="50" as="geometry" />
        </mxCell>
        <mxCell id="zV2OYzbl4k-OQZT1_3WD-32" value="2" style="text;html=1;strokeColor=none;fillColor=none;align=center;verticalAlign=middle;whiteSpace=wrap;rounded=0;" vertex="1" parent="zV2OYzbl4k-OQZT1_3WD-33">
          <mxGeometry x="110" y="110" width="50" height="50" as="geometry" />
        </mxCell>
        <mxCell id="zV2OYzbl4k-OQZT1_3WD-49" value="" style="group" vertex="1" connectable="0" parent="1">
          <mxGeometry x="280" y="480" width="160" height="160" as="geometry" />
        </mxCell>
        <mxCell id="zV2OYzbl4k-OQZT1_3WD-50" value="" style="whiteSpace=wrap;html=1;aspect=fixed;" vertex="1" parent="zV2OYzbl4k-OQZT1_3WD-49">
          <mxGeometry width="160" height="160" as="geometry" />
        </mxCell>
        <mxCell id="zV2OYzbl4k-OQZT1_3WD-51" value="" style="endArrow=none;html=1;rounded=0;entryX=0.25;entryY=0;entryDx=0;entryDy=0;exitX=0.25;exitY=1;exitDx=0;exitDy=0;" edge="1" parent="zV2OYzbl4k-OQZT1_3WD-49">
          <mxGeometry width="50" height="50" relative="1" as="geometry">
            <mxPoint x="50" y="160" as="sourcePoint" />
            <mxPoint x="50" as="targetPoint" />
          </mxGeometry>
        </mxCell>
        <mxCell id="zV2OYzbl4k-OQZT1_3WD-52" value="" style="endArrow=none;html=1;rounded=0;entryX=0.25;entryY=0;entryDx=0;entryDy=0;exitX=0.25;exitY=1;exitDx=0;exitDy=0;" edge="1" parent="zV2OYzbl4k-OQZT1_3WD-49">
          <mxGeometry width="50" height="50" relative="1" as="geometry">
            <mxPoint x="110" y="160" as="sourcePoint" />
            <mxPoint x="110" as="targetPoint" />
          </mxGeometry>
        </mxCell>
        <mxCell id="zV2OYzbl4k-OQZT1_3WD-53" value="" style="endArrow=none;html=1;rounded=0;entryX=1;entryY=0.25;entryDx=0;entryDy=0;exitX=0;exitY=0.25;exitDx=0;exitDy=0;" edge="1" parent="zV2OYzbl4k-OQZT1_3WD-49">
          <mxGeometry width="50" height="50" relative="1" as="geometry">
            <mxPoint y="50" as="sourcePoint" />
            <mxPoint x="160" y="50" as="targetPoint" />
          </mxGeometry>
        </mxCell>
        <mxCell id="zV2OYzbl4k-OQZT1_3WD-54" value="" style="endArrow=none;html=1;rounded=0;entryX=1;entryY=0.25;entryDx=0;entryDy=0;exitX=0;exitY=0.25;exitDx=0;exitDy=0;" edge="1" parent="zV2OYzbl4k-OQZT1_3WD-49">
          <mxGeometry width="50" height="50" relative="1" as="geometry">
            <mxPoint y="110" as="sourcePoint" />
            <mxPoint x="160" y="110" as="targetPoint" />
          </mxGeometry>
        </mxCell>
        <mxCell id="zV2OYzbl4k-OQZT1_3WD-55" value="3" style="text;html=1;strokeColor=none;fillColor=none;align=center;verticalAlign=middle;whiteSpace=wrap;rounded=0;" vertex="1" parent="zV2OYzbl4k-OQZT1_3WD-49">
          <mxGeometry width="50" height="50" as="geometry" />
        </mxCell>
        <mxCell id="zV2OYzbl4k-OQZT1_3WD-57" value="2" style="text;html=1;strokeColor=none;fillColor=none;align=center;verticalAlign=middle;whiteSpace=wrap;rounded=0;" vertex="1" parent="zV2OYzbl4k-OQZT1_3WD-49">
          <mxGeometry x="55" y="55" width="50" height="50" as="geometry" />
        </mxCell>
        <mxCell id="zV2OYzbl4k-OQZT1_3WD-58" value="2" style="text;html=1;strokeColor=none;fillColor=none;align=center;verticalAlign=middle;whiteSpace=wrap;rounded=0;" vertex="1" parent="zV2OYzbl4k-OQZT1_3WD-49">
          <mxGeometry y="55" width="50" height="50" as="geometry" />
        </mxCell>
        <mxCell id="zV2OYzbl4k-OQZT1_3WD-59" value="6" style="text;html=1;strokeColor=none;fillColor=none;align=center;verticalAlign=middle;whiteSpace=wrap;rounded=0;" vertex="1" parent="zV2OYzbl4k-OQZT1_3WD-49">
          <mxGeometry x="110" y="55" width="50" height="50" as="geometry" />
        </mxCell>
        <mxCell id="zV2OYzbl4k-OQZT1_3WD-60" value="4" style="text;html=1;strokeColor=none;fillColor=none;align=center;verticalAlign=middle;whiteSpace=wrap;rounded=0;" vertex="1" parent="zV2OYzbl4k-OQZT1_3WD-49">
          <mxGeometry y="110" width="50" height="50" as="geometry" />
        </mxCell>
        <mxCell id="zV2OYzbl4k-OQZT1_3WD-61" value="2" style="text;html=1;strokeColor=none;fillColor=none;align=center;verticalAlign=middle;whiteSpace=wrap;rounded=0;" vertex="1" parent="zV2OYzbl4k-OQZT1_3WD-49">
          <mxGeometry x="55" y="110" width="50" height="50" as="geometry" />
        </mxCell>
        <mxCell id="zV2OYzbl4k-OQZT1_3WD-62" value="8" style="text;html=1;strokeColor=none;fillColor=none;align=center;verticalAlign=middle;whiteSpace=wrap;rounded=0;" vertex="1" parent="zV2OYzbl4k-OQZT1_3WD-49">
          <mxGeometry x="110" y="110" width="50" height="50" as="geometry" />
        </mxCell>
        <mxCell id="zV2OYzbl4k-OQZT1_3WD-172" value="4" style="text;html=1;strokeColor=none;fillColor=none;align=center;verticalAlign=middle;whiteSpace=wrap;rounded=0;" vertex="1" parent="zV2OYzbl4k-OQZT1_3WD-49">
          <mxGeometry x="110" width="50" height="50" as="geometry" />
        </mxCell>
        <mxCell id="zV2OYzbl4k-OQZT1_3WD-63" value="" style="group" vertex="1" connectable="0" parent="1">
          <mxGeometry x="280" y="160" width="160" height="160" as="geometry" />
        </mxCell>
        <mxCell id="zV2OYzbl4k-OQZT1_3WD-64" value="" style="whiteSpace=wrap;html=1;aspect=fixed;" vertex="1" parent="zV2OYzbl4k-OQZT1_3WD-63">
          <mxGeometry width="160" height="160" as="geometry" />
        </mxCell>
        <mxCell id="zV2OYzbl4k-OQZT1_3WD-65" value="" style="endArrow=none;html=1;rounded=0;entryX=0.25;entryY=0;entryDx=0;entryDy=0;exitX=0.25;exitY=1;exitDx=0;exitDy=0;" edge="1" parent="zV2OYzbl4k-OQZT1_3WD-63">
          <mxGeometry width="50" height="50" relative="1" as="geometry">
            <mxPoint x="50" y="160" as="sourcePoint" />
            <mxPoint x="50" as="targetPoint" />
          </mxGeometry>
        </mxCell>
        <mxCell id="zV2OYzbl4k-OQZT1_3WD-66" value="" style="endArrow=none;html=1;rounded=0;entryX=0.25;entryY=0;entryDx=0;entryDy=0;exitX=0.25;exitY=1;exitDx=0;exitDy=0;" edge="1" parent="zV2OYzbl4k-OQZT1_3WD-63">
          <mxGeometry width="50" height="50" relative="1" as="geometry">
            <mxPoint x="110" y="160" as="sourcePoint" />
            <mxPoint x="110" as="targetPoint" />
          </mxGeometry>
        </mxCell>
        <mxCell id="zV2OYzbl4k-OQZT1_3WD-67" value="" style="endArrow=none;html=1;rounded=0;entryX=1;entryY=0.25;entryDx=0;entryDy=0;exitX=0;exitY=0.25;exitDx=0;exitDy=0;" edge="1" parent="zV2OYzbl4k-OQZT1_3WD-63">
          <mxGeometry width="50" height="50" relative="1" as="geometry">
            <mxPoint y="50" as="sourcePoint" />
            <mxPoint x="160" y="50" as="targetPoint" />
          </mxGeometry>
        </mxCell>
        <mxCell id="zV2OYzbl4k-OQZT1_3WD-68" value="" style="endArrow=none;html=1;rounded=0;entryX=1;entryY=0.25;entryDx=0;entryDy=0;exitX=0;exitY=0.25;exitDx=0;exitDy=0;" edge="1" parent="zV2OYzbl4k-OQZT1_3WD-63">
          <mxGeometry width="50" height="50" relative="1" as="geometry">
            <mxPoint y="110" as="sourcePoint" />
            <mxPoint x="160" y="110" as="targetPoint" />
          </mxGeometry>
        </mxCell>
        <mxCell id="zV2OYzbl4k-OQZT1_3WD-69" value="2" style="text;html=1;strokeColor=none;fillColor=none;align=center;verticalAlign=middle;whiteSpace=wrap;rounded=0;" vertex="1" parent="zV2OYzbl4k-OQZT1_3WD-63">
          <mxGeometry width="50" height="50" as="geometry" />
        </mxCell>
        <mxCell id="zV2OYzbl4k-OQZT1_3WD-70" value="0" style="text;html=1;strokeColor=none;fillColor=none;align=center;verticalAlign=middle;whiteSpace=wrap;rounded=0;" vertex="1" parent="zV2OYzbl4k-OQZT1_3WD-63">
          <mxGeometry x="55" y="55" width="50" height="50" as="geometry" />
        </mxCell>
        <mxCell id="zV2OYzbl4k-OQZT1_3WD-71" value="2" style="text;html=1;strokeColor=none;fillColor=none;align=center;verticalAlign=middle;whiteSpace=wrap;rounded=0;" vertex="1" parent="zV2OYzbl4k-OQZT1_3WD-63">
          <mxGeometry y="55" width="50" height="50" as="geometry" />
        </mxCell>
        <mxCell id="zV2OYzbl4k-OQZT1_3WD-72" value="8" style="text;html=1;strokeColor=none;fillColor=none;align=center;verticalAlign=middle;whiteSpace=wrap;rounded=0;" vertex="1" parent="zV2OYzbl4k-OQZT1_3WD-63">
          <mxGeometry x="110" y="55" width="50" height="50" as="geometry" />
        </mxCell>
        <mxCell id="zV2OYzbl4k-OQZT1_3WD-73" value="2" style="text;html=1;strokeColor=none;fillColor=none;align=center;verticalAlign=middle;whiteSpace=wrap;rounded=0;" vertex="1" parent="zV2OYzbl4k-OQZT1_3WD-63">
          <mxGeometry y="110" width="50" height="50" as="geometry" />
        </mxCell>
        <mxCell id="zV2OYzbl4k-OQZT1_3WD-74" value="0" style="text;html=1;strokeColor=none;fillColor=none;align=center;verticalAlign=middle;whiteSpace=wrap;rounded=0;" vertex="1" parent="zV2OYzbl4k-OQZT1_3WD-63">
          <mxGeometry x="55" y="110" width="50" height="50" as="geometry" />
        </mxCell>
        <mxCell id="zV2OYzbl4k-OQZT1_3WD-75" value="8" style="text;html=1;strokeColor=none;fillColor=none;align=center;verticalAlign=middle;whiteSpace=wrap;rounded=0;" vertex="1" parent="zV2OYzbl4k-OQZT1_3WD-63">
          <mxGeometry x="110" y="110" width="50" height="50" as="geometry" />
        </mxCell>
        <mxCell id="zV2OYzbl4k-OQZT1_3WD-173" value="6" style="text;html=1;strokeColor=none;fillColor=none;align=center;verticalAlign=middle;whiteSpace=wrap;rounded=0;" vertex="1" parent="zV2OYzbl4k-OQZT1_3WD-63">
          <mxGeometry x="110" width="50" height="50" as="geometry" />
        </mxCell>
        <mxCell id="zV2OYzbl4k-OQZT1_3WD-76" value="" style="group" vertex="1" connectable="0" parent="1">
          <mxGeometry x="560" y="320" width="160" height="160" as="geometry" />
        </mxCell>
        <mxCell id="zV2OYzbl4k-OQZT1_3WD-77" value="" style="whiteSpace=wrap;html=1;aspect=fixed;" vertex="1" parent="zV2OYzbl4k-OQZT1_3WD-76">
          <mxGeometry width="160" height="160" as="geometry" />
        </mxCell>
        <mxCell id="zV2OYzbl4k-OQZT1_3WD-78" value="" style="endArrow=none;html=1;rounded=0;entryX=0.25;entryY=0;entryDx=0;entryDy=0;exitX=0.25;exitY=1;exitDx=0;exitDy=0;" edge="1" parent="zV2OYzbl4k-OQZT1_3WD-76">
          <mxGeometry width="50" height="50" relative="1" as="geometry">
            <mxPoint x="50" y="160" as="sourcePoint" />
            <mxPoint x="50" as="targetPoint" />
          </mxGeometry>
        </mxCell>
        <mxCell id="zV2OYzbl4k-OQZT1_3WD-79" value="" style="endArrow=none;html=1;rounded=0;entryX=0.25;entryY=0;entryDx=0;entryDy=0;exitX=0.25;exitY=1;exitDx=0;exitDy=0;" edge="1" parent="zV2OYzbl4k-OQZT1_3WD-76">
          <mxGeometry width="50" height="50" relative="1" as="geometry">
            <mxPoint x="110" y="160" as="sourcePoint" />
            <mxPoint x="110" as="targetPoint" />
          </mxGeometry>
        </mxCell>
        <mxCell id="zV2OYzbl4k-OQZT1_3WD-80" value="" style="endArrow=none;html=1;rounded=0;entryX=1;entryY=0.25;entryDx=0;entryDy=0;exitX=0;exitY=0.25;exitDx=0;exitDy=0;" edge="1" parent="zV2OYzbl4k-OQZT1_3WD-76">
          <mxGeometry width="50" height="50" relative="1" as="geometry">
            <mxPoint y="50" as="sourcePoint" />
            <mxPoint x="160" y="50" as="targetPoint" />
          </mxGeometry>
        </mxCell>
        <mxCell id="zV2OYzbl4k-OQZT1_3WD-81" value="" style="endArrow=none;html=1;rounded=0;entryX=1;entryY=0.25;entryDx=0;entryDy=0;exitX=0;exitY=0.25;exitDx=0;exitDy=0;" edge="1" parent="zV2OYzbl4k-OQZT1_3WD-76">
          <mxGeometry width="50" height="50" relative="1" as="geometry">
            <mxPoint y="110" as="sourcePoint" />
            <mxPoint x="160" y="110" as="targetPoint" />
          </mxGeometry>
        </mxCell>
        <mxCell id="zV2OYzbl4k-OQZT1_3WD-82" value="4" style="text;html=1;strokeColor=none;fillColor=none;align=center;verticalAlign=middle;whiteSpace=wrap;rounded=0;" vertex="1" parent="zV2OYzbl4k-OQZT1_3WD-76">
          <mxGeometry width="50" height="50" as="geometry" />
        </mxCell>
        <mxCell id="zV2OYzbl4k-OQZT1_3WD-83" value="0" style="text;html=1;strokeColor=none;fillColor=none;align=center;verticalAlign=middle;whiteSpace=wrap;rounded=0;" vertex="1" parent="zV2OYzbl4k-OQZT1_3WD-76">
          <mxGeometry x="55" y="55" width="50" height="50" as="geometry" />
        </mxCell>
        <mxCell id="zV2OYzbl4k-OQZT1_3WD-84" value="8" style="text;html=1;strokeColor=none;fillColor=none;align=center;verticalAlign=middle;whiteSpace=wrap;rounded=0;" vertex="1" parent="zV2OYzbl4k-OQZT1_3WD-76">
          <mxGeometry y="55" width="50" height="50" as="geometry" />
        </mxCell>
        <mxCell id="zV2OYzbl4k-OQZT1_3WD-85" value="10" style="text;html=1;strokeColor=none;fillColor=none;align=center;verticalAlign=middle;whiteSpace=wrap;rounded=0;" vertex="1" parent="zV2OYzbl4k-OQZT1_3WD-76">
          <mxGeometry x="110" y="55" width="50" height="50" as="geometry" />
        </mxCell>
        <mxCell id="zV2OYzbl4k-OQZT1_3WD-86" value="8" style="text;html=1;strokeColor=none;fillColor=none;align=center;verticalAlign=middle;whiteSpace=wrap;rounded=0;" vertex="1" parent="zV2OYzbl4k-OQZT1_3WD-76">
          <mxGeometry y="110" width="50" height="50" as="geometry" />
        </mxCell>
        <mxCell id="zV2OYzbl4k-OQZT1_3WD-87" value="0" style="text;html=1;strokeColor=none;fillColor=none;align=center;verticalAlign=middle;whiteSpace=wrap;rounded=0;" vertex="1" parent="zV2OYzbl4k-OQZT1_3WD-76">
          <mxGeometry x="55" y="110" width="50" height="50" as="geometry" />
        </mxCell>
        <mxCell id="zV2OYzbl4k-OQZT1_3WD-88" value="10" style="text;html=1;strokeColor=none;fillColor=none;align=center;verticalAlign=middle;whiteSpace=wrap;rounded=0;" vertex="1" parent="zV2OYzbl4k-OQZT1_3WD-76">
          <mxGeometry x="110" y="110" width="50" height="50" as="geometry" />
        </mxCell>
        <mxCell id="zV2OYzbl4k-OQZT1_3WD-175" value="2" style="text;html=1;strokeColor=none;fillColor=none;align=center;verticalAlign=middle;whiteSpace=wrap;rounded=0;" vertex="1" parent="zV2OYzbl4k-OQZT1_3WD-76">
          <mxGeometry x="110" width="50" height="50" as="geometry" />
        </mxCell>
        <mxCell id="zV2OYzbl4k-OQZT1_3WD-89" style="edgeStyle=orthogonalEdgeStyle;rounded=0;orthogonalLoop=1;jettySize=auto;html=1;entryX=0;entryY=0.5;entryDx=0;entryDy=0;" edge="1" parent="1" source="zV2OYzbl4k-OQZT1_3WD-72" target="zV2OYzbl4k-OQZT1_3WD-84">
          <mxGeometry relative="1" as="geometry" />
        </mxCell>
        <mxCell id="zV2OYzbl4k-OQZT1_3WD-91" style="edgeStyle=orthogonalEdgeStyle;rounded=0;orthogonalLoop=1;jettySize=auto;html=1;entryX=0;entryY=0.5;entryDx=0;entryDy=0;" edge="1" parent="1" source="zV2OYzbl4k-OQZT1_3WD-59" target="zV2OYzbl4k-OQZT1_3WD-84">
          <mxGeometry relative="1" as="geometry" />
        </mxCell>
        <mxCell id="zV2OYzbl4k-OQZT1_3WD-92" value="" style="group" vertex="1" connectable="0" parent="1">
          <mxGeometry x="840" y="320" width="160" height="160" as="geometry" />
        </mxCell>
        <mxCell id="zV2OYzbl4k-OQZT1_3WD-93" value="" style="whiteSpace=wrap;html=1;aspect=fixed;" vertex="1" parent="zV2OYzbl4k-OQZT1_3WD-92">
          <mxGeometry width="160" height="160" as="geometry" />
        </mxCell>
        <mxCell id="zV2OYzbl4k-OQZT1_3WD-94" value="" style="endArrow=none;html=1;rounded=0;entryX=0.25;entryY=0;entryDx=0;entryDy=0;exitX=0.25;exitY=1;exitDx=0;exitDy=0;" edge="1" parent="zV2OYzbl4k-OQZT1_3WD-92">
          <mxGeometry width="50" height="50" relative="1" as="geometry">
            <mxPoint x="50" y="160" as="sourcePoint" />
            <mxPoint x="50" as="targetPoint" />
          </mxGeometry>
        </mxCell>
        <mxCell id="zV2OYzbl4k-OQZT1_3WD-95" value="" style="endArrow=none;html=1;rounded=0;entryX=0.25;entryY=0;entryDx=0;entryDy=0;exitX=0.25;exitY=1;exitDx=0;exitDy=0;" edge="1" parent="zV2OYzbl4k-OQZT1_3WD-92">
          <mxGeometry width="50" height="50" relative="1" as="geometry">
            <mxPoint x="110" y="160" as="sourcePoint" />
            <mxPoint x="110" as="targetPoint" />
          </mxGeometry>
        </mxCell>
        <mxCell id="zV2OYzbl4k-OQZT1_3WD-96" value="" style="endArrow=none;html=1;rounded=0;entryX=1;entryY=0.25;entryDx=0;entryDy=0;exitX=0;exitY=0.25;exitDx=0;exitDy=0;" edge="1" parent="zV2OYzbl4k-OQZT1_3WD-92">
          <mxGeometry width="50" height="50" relative="1" as="geometry">
            <mxPoint y="50" as="sourcePoint" />
            <mxPoint x="160" y="50" as="targetPoint" />
          </mxGeometry>
        </mxCell>
        <mxCell id="zV2OYzbl4k-OQZT1_3WD-97" value="" style="endArrow=none;html=1;rounded=0;entryX=1;entryY=0.25;entryDx=0;entryDy=0;exitX=0;exitY=0.25;exitDx=0;exitDy=0;" edge="1" parent="zV2OYzbl4k-OQZT1_3WD-92">
          <mxGeometry width="50" height="50" relative="1" as="geometry">
            <mxPoint y="110" as="sourcePoint" />
            <mxPoint x="160" y="110" as="targetPoint" />
          </mxGeometry>
        </mxCell>
        <mxCell id="zV2OYzbl4k-OQZT1_3WD-98" value="5" style="text;html=1;strokeColor=none;fillColor=none;align=center;verticalAlign=middle;whiteSpace=wrap;rounded=0;" vertex="1" parent="zV2OYzbl4k-OQZT1_3WD-92">
          <mxGeometry width="50" height="50" as="geometry" />
        </mxCell>
        <mxCell id="zV2OYzbl4k-OQZT1_3WD-99" value="2" style="text;html=1;strokeColor=none;fillColor=none;align=center;verticalAlign=middle;whiteSpace=wrap;rounded=0;" vertex="1" parent="zV2OYzbl4k-OQZT1_3WD-92">
          <mxGeometry x="110" width="50" height="50" as="geometry" />
        </mxCell>
        <mxCell id="zV2OYzbl4k-OQZT1_3WD-100" value="6" style="text;html=1;strokeColor=none;fillColor=none;align=center;verticalAlign=middle;whiteSpace=wrap;rounded=0;" vertex="1" parent="zV2OYzbl4k-OQZT1_3WD-92">
          <mxGeometry x="55" y="55" width="50" height="50" as="geometry" />
        </mxCell>
        <mxCell id="zV2OYzbl4k-OQZT1_3WD-101" value="10" style="text;html=1;strokeColor=none;fillColor=none;align=center;verticalAlign=middle;whiteSpace=wrap;rounded=0;" vertex="1" parent="zV2OYzbl4k-OQZT1_3WD-92">
          <mxGeometry y="55" width="50" height="50" as="geometry" />
        </mxCell>
        <mxCell id="zV2OYzbl4k-OQZT1_3WD-153" style="edgeStyle=orthogonalEdgeStyle;rounded=0;orthogonalLoop=1;jettySize=auto;html=1;" edge="1" parent="zV2OYzbl4k-OQZT1_3WD-92" source="zV2OYzbl4k-OQZT1_3WD-102">
          <mxGeometry relative="1" as="geometry">
            <mxPoint x="280" y="77.5" as="targetPoint" />
          </mxGeometry>
        </mxCell>
        <mxCell id="zV2OYzbl4k-OQZT1_3WD-102" value="12" style="text;html=1;strokeColor=none;fillColor=none;align=center;verticalAlign=middle;whiteSpace=wrap;rounded=0;" vertex="1" parent="zV2OYzbl4k-OQZT1_3WD-92">
          <mxGeometry x="110" y="50" width="50" height="55" as="geometry" />
        </mxCell>
        <mxCell id="zV2OYzbl4k-OQZT1_3WD-103" value="16" style="text;html=1;strokeColor=none;fillColor=none;align=center;verticalAlign=middle;whiteSpace=wrap;rounded=0;" vertex="1" parent="zV2OYzbl4k-OQZT1_3WD-92">
          <mxGeometry y="110" width="50" height="50" as="geometry" />
        </mxCell>
        <mxCell id="zV2OYzbl4k-OQZT1_3WD-104" value="6" style="text;html=1;strokeColor=none;fillColor=none;align=center;verticalAlign=middle;whiteSpace=wrap;rounded=0;" vertex="1" parent="zV2OYzbl4k-OQZT1_3WD-92">
          <mxGeometry x="55" y="110" width="50" height="50" as="geometry" />
        </mxCell>
        <mxCell id="zV2OYzbl4k-OQZT1_3WD-105" value="18" style="text;html=1;strokeColor=none;fillColor=none;align=center;verticalAlign=middle;whiteSpace=wrap;rounded=0;" vertex="1" parent="zV2OYzbl4k-OQZT1_3WD-92">
          <mxGeometry x="110" y="110" width="50" height="50" as="geometry" />
        </mxCell>
        <mxCell id="zV2OYzbl4k-OQZT1_3WD-106" style="edgeStyle=orthogonalEdgeStyle;rounded=0;orthogonalLoop=1;jettySize=auto;html=1;entryX=0;entryY=0.5;entryDx=0;entryDy=0;" edge="1" parent="1">
          <mxGeometry relative="1" as="geometry">
            <mxPoint x="720" y="430" as="sourcePoint" />
            <mxPoint x="840" y="430" as="targetPoint" />
          </mxGeometry>
        </mxCell>
        <mxCell id="zV2OYzbl4k-OQZT1_3WD-107" value="" style="group" vertex="1" connectable="0" parent="1">
          <mxGeometry x="840" y="80" width="160" height="160" as="geometry" />
        </mxCell>
        <mxCell id="zV2OYzbl4k-OQZT1_3WD-108" value="" style="whiteSpace=wrap;html=1;aspect=fixed;" vertex="1" parent="zV2OYzbl4k-OQZT1_3WD-107">
          <mxGeometry width="160" height="160" as="geometry" />
        </mxCell>
        <mxCell id="zV2OYzbl4k-OQZT1_3WD-109" value="" style="endArrow=none;html=1;rounded=0;entryX=0.25;entryY=0;entryDx=0;entryDy=0;exitX=0.25;exitY=1;exitDx=0;exitDy=0;" edge="1" parent="zV2OYzbl4k-OQZT1_3WD-107">
          <mxGeometry width="50" height="50" relative="1" as="geometry">
            <mxPoint x="50" y="160" as="sourcePoint" />
            <mxPoint x="50" as="targetPoint" />
          </mxGeometry>
        </mxCell>
        <mxCell id="zV2OYzbl4k-OQZT1_3WD-110" value="" style="endArrow=none;html=1;rounded=0;entryX=0.25;entryY=0;entryDx=0;entryDy=0;exitX=0.25;exitY=1;exitDx=0;exitDy=0;" edge="1" parent="zV2OYzbl4k-OQZT1_3WD-107">
          <mxGeometry width="50" height="50" relative="1" as="geometry">
            <mxPoint x="110" y="160" as="sourcePoint" />
            <mxPoint x="110" as="targetPoint" />
          </mxGeometry>
        </mxCell>
        <mxCell id="zV2OYzbl4k-OQZT1_3WD-111" value="" style="endArrow=none;html=1;rounded=0;entryX=1;entryY=0.25;entryDx=0;entryDy=0;exitX=0;exitY=0.25;exitDx=0;exitDy=0;" edge="1" parent="zV2OYzbl4k-OQZT1_3WD-107">
          <mxGeometry width="50" height="50" relative="1" as="geometry">
            <mxPoint y="50" as="sourcePoint" />
            <mxPoint x="160" y="50" as="targetPoint" />
          </mxGeometry>
        </mxCell>
        <mxCell id="zV2OYzbl4k-OQZT1_3WD-112" value="" style="endArrow=none;html=1;rounded=0;entryX=1;entryY=0.25;entryDx=0;entryDy=0;exitX=0;exitY=0.25;exitDx=0;exitDy=0;" edge="1" parent="zV2OYzbl4k-OQZT1_3WD-107">
          <mxGeometry width="50" height="50" relative="1" as="geometry">
            <mxPoint y="110" as="sourcePoint" />
            <mxPoint x="160" y="110" as="targetPoint" />
          </mxGeometry>
        </mxCell>
        <mxCell id="zV2OYzbl4k-OQZT1_3WD-113" value="6" style="text;html=1;strokeColor=none;fillColor=none;align=center;verticalAlign=middle;whiteSpace=wrap;rounded=0;" vertex="1" parent="zV2OYzbl4k-OQZT1_3WD-107">
          <mxGeometry width="50" height="50" as="geometry" />
        </mxCell>
        <mxCell id="zV2OYzbl4k-OQZT1_3WD-114" value="6" style="text;html=1;strokeColor=none;fillColor=none;align=center;verticalAlign=middle;whiteSpace=wrap;rounded=0;" vertex="1" parent="zV2OYzbl4k-OQZT1_3WD-107">
          <mxGeometry x="110" width="50" height="50" as="geometry" />
        </mxCell>
        <mxCell id="zV2OYzbl4k-OQZT1_3WD-115" value="2" style="text;html=1;strokeColor=none;fillColor=none;align=center;verticalAlign=middle;whiteSpace=wrap;rounded=0;" vertex="1" parent="zV2OYzbl4k-OQZT1_3WD-107">
          <mxGeometry x="55" y="55" width="50" height="50" as="geometry" />
        </mxCell>
        <mxCell id="zV2OYzbl4k-OQZT1_3WD-116" value="10" style="text;html=1;strokeColor=none;fillColor=none;align=center;verticalAlign=middle;whiteSpace=wrap;rounded=0;" vertex="1" parent="zV2OYzbl4k-OQZT1_3WD-107">
          <mxGeometry y="55" width="50" height="50" as="geometry" />
        </mxCell>
        <mxCell id="zV2OYzbl4k-OQZT1_3WD-117" value="16" style="text;html=1;strokeColor=none;fillColor=none;align=center;verticalAlign=middle;whiteSpace=wrap;rounded=0;" vertex="1" parent="zV2OYzbl4k-OQZT1_3WD-107">
          <mxGeometry x="110" y="50" width="50" height="55" as="geometry" />
        </mxCell>
        <mxCell id="zV2OYzbl4k-OQZT1_3WD-118" value="12" style="text;html=1;strokeColor=none;fillColor=none;align=center;verticalAlign=middle;whiteSpace=wrap;rounded=0;" vertex="1" parent="zV2OYzbl4k-OQZT1_3WD-107">
          <mxGeometry y="110" width="50" height="50" as="geometry" />
        </mxCell>
        <mxCell id="zV2OYzbl4k-OQZT1_3WD-119" value="2" style="text;html=1;strokeColor=none;fillColor=none;align=center;verticalAlign=middle;whiteSpace=wrap;rounded=0;" vertex="1" parent="zV2OYzbl4k-OQZT1_3WD-107">
          <mxGeometry x="55" y="110" width="50" height="50" as="geometry" />
        </mxCell>
        <mxCell id="zV2OYzbl4k-OQZT1_3WD-120" value="18" style="text;html=1;strokeColor=none;fillColor=none;align=center;verticalAlign=middle;whiteSpace=wrap;rounded=0;" vertex="1" parent="zV2OYzbl4k-OQZT1_3WD-107">
          <mxGeometry x="110" y="110" width="50" height="50" as="geometry" />
        </mxCell>
        <mxCell id="zV2OYzbl4k-OQZT1_3WD-122" style="edgeStyle=orthogonalEdgeStyle;rounded=0;orthogonalLoop=1;jettySize=auto;html=1;entryX=0;entryY=0.5;entryDx=0;entryDy=0;" edge="1" parent="1" source="zV2OYzbl4k-OQZT1_3WD-85" target="zV2OYzbl4k-OQZT1_3WD-116">
          <mxGeometry relative="1" as="geometry" />
        </mxCell>
        <mxCell id="zV2OYzbl4k-OQZT1_3WD-123" value="" style="group" vertex="1" connectable="0" parent="1">
          <mxGeometry x="840" y="560" width="160" height="160" as="geometry" />
        </mxCell>
        <mxCell id="zV2OYzbl4k-OQZT1_3WD-124" value="" style="whiteSpace=wrap;html=1;aspect=fixed;" vertex="1" parent="zV2OYzbl4k-OQZT1_3WD-123">
          <mxGeometry width="160" height="160" as="geometry" />
        </mxCell>
        <mxCell id="zV2OYzbl4k-OQZT1_3WD-125" value="" style="endArrow=none;html=1;rounded=0;entryX=0.25;entryY=0;entryDx=0;entryDy=0;exitX=0.25;exitY=1;exitDx=0;exitDy=0;" edge="1" parent="zV2OYzbl4k-OQZT1_3WD-123">
          <mxGeometry width="50" height="50" relative="1" as="geometry">
            <mxPoint x="50" y="160" as="sourcePoint" />
            <mxPoint x="50" as="targetPoint" />
          </mxGeometry>
        </mxCell>
        <mxCell id="zV2OYzbl4k-OQZT1_3WD-126" value="" style="endArrow=none;html=1;rounded=0;entryX=0.25;entryY=0;entryDx=0;entryDy=0;exitX=0.25;exitY=1;exitDx=0;exitDy=0;" edge="1" parent="zV2OYzbl4k-OQZT1_3WD-123">
          <mxGeometry width="50" height="50" relative="1" as="geometry">
            <mxPoint x="110" y="160" as="sourcePoint" />
            <mxPoint x="110" as="targetPoint" />
          </mxGeometry>
        </mxCell>
        <mxCell id="zV2OYzbl4k-OQZT1_3WD-127" value="" style="endArrow=none;html=1;rounded=0;entryX=1;entryY=0.25;entryDx=0;entryDy=0;exitX=0;exitY=0.25;exitDx=0;exitDy=0;" edge="1" parent="zV2OYzbl4k-OQZT1_3WD-123">
          <mxGeometry width="50" height="50" relative="1" as="geometry">
            <mxPoint y="50" as="sourcePoint" />
            <mxPoint x="160" y="50" as="targetPoint" />
          </mxGeometry>
        </mxCell>
        <mxCell id="zV2OYzbl4k-OQZT1_3WD-128" value="" style="endArrow=none;html=1;rounded=0;entryX=1;entryY=0.25;entryDx=0;entryDy=0;exitX=0;exitY=0.25;exitDx=0;exitDy=0;" edge="1" parent="zV2OYzbl4k-OQZT1_3WD-123">
          <mxGeometry width="50" height="50" relative="1" as="geometry">
            <mxPoint y="110" as="sourcePoint" />
            <mxPoint x="160" y="110" as="targetPoint" />
          </mxGeometry>
        </mxCell>
        <mxCell id="zV2OYzbl4k-OQZT1_3WD-129" value="7" style="text;html=1;strokeColor=none;fillColor=none;align=center;verticalAlign=middle;whiteSpace=wrap;rounded=0;" vertex="1" parent="zV2OYzbl4k-OQZT1_3WD-123">
          <mxGeometry width="50" height="50" as="geometry" />
        </mxCell>
        <mxCell id="zV2OYzbl4k-OQZT1_3WD-130" value="8" style="text;html=1;strokeColor=none;fillColor=none;align=center;verticalAlign=middle;whiteSpace=wrap;rounded=0;" vertex="1" parent="zV2OYzbl4k-OQZT1_3WD-123">
          <mxGeometry x="110" width="50" height="50" as="geometry" />
        </mxCell>
        <mxCell id="zV2OYzbl4k-OQZT1_3WD-131" value="0" style="text;html=1;strokeColor=none;fillColor=none;align=center;verticalAlign=middle;whiteSpace=wrap;rounded=0;" vertex="1" parent="zV2OYzbl4k-OQZT1_3WD-123">
          <mxGeometry x="55" y="55" width="50" height="50" as="geometry" />
        </mxCell>
        <mxCell id="zV2OYzbl4k-OQZT1_3WD-132" value="10" style="text;html=1;strokeColor=none;fillColor=none;align=center;verticalAlign=middle;whiteSpace=wrap;rounded=0;" vertex="1" parent="zV2OYzbl4k-OQZT1_3WD-123">
          <mxGeometry y="55" width="50" height="50" as="geometry" />
        </mxCell>
        <mxCell id="zV2OYzbl4k-OQZT1_3WD-133" value="18" style="text;html=1;strokeColor=none;fillColor=none;align=center;verticalAlign=middle;whiteSpace=wrap;rounded=0;" vertex="1" parent="zV2OYzbl4k-OQZT1_3WD-123">
          <mxGeometry x="110" y="50" width="50" height="55" as="geometry" />
        </mxCell>
        <mxCell id="zV2OYzbl4k-OQZT1_3WD-134" value="10" style="text;html=1;strokeColor=none;fillColor=none;align=center;verticalAlign=middle;whiteSpace=wrap;rounded=0;" vertex="1" parent="zV2OYzbl4k-OQZT1_3WD-123">
          <mxGeometry y="110" width="50" height="50" as="geometry" />
        </mxCell>
        <mxCell id="zV2OYzbl4k-OQZT1_3WD-135" value="0" style="text;html=1;strokeColor=none;fillColor=none;align=center;verticalAlign=middle;whiteSpace=wrap;rounded=0;" vertex="1" parent="zV2OYzbl4k-OQZT1_3WD-123">
          <mxGeometry x="55" y="110" width="50" height="50" as="geometry" />
        </mxCell>
        <mxCell id="zV2OYzbl4k-OQZT1_3WD-136" value="18" style="text;html=1;strokeColor=none;fillColor=none;align=center;verticalAlign=middle;whiteSpace=wrap;rounded=0;" vertex="1" parent="zV2OYzbl4k-OQZT1_3WD-123">
          <mxGeometry x="110" y="110" width="50" height="50" as="geometry" />
        </mxCell>
        <mxCell id="zV2OYzbl4k-OQZT1_3WD-137" style="edgeStyle=orthogonalEdgeStyle;rounded=0;orthogonalLoop=1;jettySize=auto;html=1;entryX=0;entryY=0.5;entryDx=0;entryDy=0;" edge="1" parent="1" source="zV2OYzbl4k-OQZT1_3WD-85" target="zV2OYzbl4k-OQZT1_3WD-132">
          <mxGeometry relative="1" as="geometry" />
        </mxCell>
        <mxCell id="zV2OYzbl4k-OQZT1_3WD-138" value="" style="group" vertex="1" connectable="0" parent="1">
          <mxGeometry x="1120" y="320" width="160" height="160" as="geometry" />
        </mxCell>
        <mxCell id="zV2OYzbl4k-OQZT1_3WD-139" value="" style="whiteSpace=wrap;html=1;aspect=fixed;" vertex="1" parent="zV2OYzbl4k-OQZT1_3WD-138">
          <mxGeometry width="160" height="160" as="geometry" />
        </mxCell>
        <mxCell id="zV2OYzbl4k-OQZT1_3WD-140" value="" style="endArrow=none;html=1;rounded=0;entryX=0.25;entryY=0;entryDx=0;entryDy=0;exitX=0.25;exitY=1;exitDx=0;exitDy=0;" edge="1" parent="zV2OYzbl4k-OQZT1_3WD-138">
          <mxGeometry width="50" height="50" relative="1" as="geometry">
            <mxPoint x="50" y="160" as="sourcePoint" />
            <mxPoint x="50" as="targetPoint" />
          </mxGeometry>
        </mxCell>
        <mxCell id="zV2OYzbl4k-OQZT1_3WD-141" value="" style="endArrow=none;html=1;rounded=0;entryX=0.25;entryY=0;entryDx=0;entryDy=0;exitX=0.25;exitY=1;exitDx=0;exitDy=0;" edge="1" parent="zV2OYzbl4k-OQZT1_3WD-138">
          <mxGeometry width="50" height="50" relative="1" as="geometry">
            <mxPoint x="110" y="160" as="sourcePoint" />
            <mxPoint x="110" as="targetPoint" />
          </mxGeometry>
        </mxCell>
        <mxCell id="zV2OYzbl4k-OQZT1_3WD-142" value="" style="endArrow=none;html=1;rounded=0;entryX=1;entryY=0.25;entryDx=0;entryDy=0;exitX=0;exitY=0.25;exitDx=0;exitDy=0;" edge="1" parent="zV2OYzbl4k-OQZT1_3WD-138">
          <mxGeometry width="50" height="50" relative="1" as="geometry">
            <mxPoint y="50" as="sourcePoint" />
            <mxPoint x="160" y="50" as="targetPoint" />
          </mxGeometry>
        </mxCell>
        <mxCell id="zV2OYzbl4k-OQZT1_3WD-143" value="" style="endArrow=none;html=1;rounded=0;entryX=1;entryY=0.25;entryDx=0;entryDy=0;exitX=0;exitY=0.25;exitDx=0;exitDy=0;" edge="1" parent="zV2OYzbl4k-OQZT1_3WD-138">
          <mxGeometry width="50" height="50" relative="1" as="geometry">
            <mxPoint y="110" as="sourcePoint" />
            <mxPoint x="160" y="110" as="targetPoint" />
          </mxGeometry>
        </mxCell>
        <mxCell id="zV2OYzbl4k-OQZT1_3WD-144" value="8" style="text;html=1;strokeColor=none;fillColor=none;align=center;verticalAlign=middle;whiteSpace=wrap;rounded=0;" vertex="1" parent="zV2OYzbl4k-OQZT1_3WD-138">
          <mxGeometry width="50" height="50" as="geometry" />
        </mxCell>
        <mxCell id="zV2OYzbl4k-OQZT1_3WD-145" value="8" style="text;html=1;strokeColor=none;fillColor=none;align=center;verticalAlign=middle;whiteSpace=wrap;rounded=0;" vertex="1" parent="zV2OYzbl4k-OQZT1_3WD-138">
          <mxGeometry x="110" width="50" height="50" as="geometry" />
        </mxCell>
        <mxCell id="zV2OYzbl4k-OQZT1_3WD-146" value="0" style="text;html=1;strokeColor=none;fillColor=none;align=center;verticalAlign=middle;whiteSpace=wrap;rounded=0;" vertex="1" parent="zV2OYzbl4k-OQZT1_3WD-138">
          <mxGeometry x="55" y="55" width="50" height="50" as="geometry" />
        </mxCell>
        <mxCell id="zV2OYzbl4k-OQZT1_3WD-147" value="18" style="text;html=1;strokeColor=none;fillColor=none;align=center;verticalAlign=middle;whiteSpace=wrap;rounded=0;" vertex="1" parent="zV2OYzbl4k-OQZT1_3WD-138">
          <mxGeometry y="55" width="50" height="50" as="geometry" />
        </mxCell>
        <mxCell id="zV2OYzbl4k-OQZT1_3WD-148" value="26" style="text;html=1;strokeColor=none;fillColor=none;align=center;verticalAlign=middle;whiteSpace=wrap;rounded=0;" vertex="1" parent="zV2OYzbl4k-OQZT1_3WD-138">
          <mxGeometry x="110" y="50" width="50" height="55" as="geometry" />
        </mxCell>
        <mxCell id="zV2OYzbl4k-OQZT1_3WD-149" value="18" style="text;html=1;strokeColor=none;fillColor=none;align=center;verticalAlign=middle;whiteSpace=wrap;rounded=0;" vertex="1" parent="zV2OYzbl4k-OQZT1_3WD-138">
          <mxGeometry y="110" width="50" height="50" as="geometry" />
        </mxCell>
        <mxCell id="zV2OYzbl4k-OQZT1_3WD-150" value="0" style="text;html=1;strokeColor=none;fillColor=none;align=center;verticalAlign=middle;whiteSpace=wrap;rounded=0;" vertex="1" parent="zV2OYzbl4k-OQZT1_3WD-138">
          <mxGeometry x="55" y="110" width="50" height="50" as="geometry" />
        </mxCell>
        <mxCell id="zV2OYzbl4k-OQZT1_3WD-151" value="26" style="text;html=1;strokeColor=none;fillColor=none;align=center;verticalAlign=middle;whiteSpace=wrap;rounded=0;" vertex="1" parent="zV2OYzbl4k-OQZT1_3WD-138">
          <mxGeometry x="110" y="110" width="50" height="50" as="geometry" />
        </mxCell>
        <mxCell id="zV2OYzbl4k-OQZT1_3WD-152" style="edgeStyle=orthogonalEdgeStyle;rounded=0;orthogonalLoop=1;jettySize=auto;html=1;entryX=0;entryY=0.5;entryDx=0;entryDy=0;" edge="1" parent="1" source="zV2OYzbl4k-OQZT1_3WD-117" target="zV2OYzbl4k-OQZT1_3WD-147">
          <mxGeometry relative="1" as="geometry" />
        </mxCell>
        <mxCell id="zV2OYzbl4k-OQZT1_3WD-154" style="edgeStyle=orthogonalEdgeStyle;rounded=0;orthogonalLoop=1;jettySize=auto;html=1;entryX=0;entryY=0.5;entryDx=0;entryDy=0;" edge="1" parent="1" source="zV2OYzbl4k-OQZT1_3WD-133" target="zV2OYzbl4k-OQZT1_3WD-147">
          <mxGeometry relative="1" as="geometry" />
        </mxCell>
        <mxCell id="zV2OYzbl4k-OQZT1_3WD-155" value="" style="group" vertex="1" connectable="0" parent="1">
          <mxGeometry x="1410" y="320" width="160" height="160" as="geometry" />
        </mxCell>
        <mxCell id="zV2OYzbl4k-OQZT1_3WD-156" value="" style="whiteSpace=wrap;html=1;aspect=fixed;" vertex="1" parent="zV2OYzbl4k-OQZT1_3WD-155">
          <mxGeometry width="160" height="160" as="geometry" />
        </mxCell>
        <mxCell id="zV2OYzbl4k-OQZT1_3WD-157" value="" style="endArrow=none;html=1;rounded=0;entryX=0.25;entryY=0;entryDx=0;entryDy=0;exitX=0.25;exitY=1;exitDx=0;exitDy=0;" edge="1" parent="zV2OYzbl4k-OQZT1_3WD-155">
          <mxGeometry width="50" height="50" relative="1" as="geometry">
            <mxPoint x="50" y="160" as="sourcePoint" />
            <mxPoint x="50" as="targetPoint" />
          </mxGeometry>
        </mxCell>
        <mxCell id="zV2OYzbl4k-OQZT1_3WD-158" value="" style="endArrow=none;html=1;rounded=0;entryX=0.25;entryY=0;entryDx=0;entryDy=0;exitX=0.25;exitY=1;exitDx=0;exitDy=0;" edge="1" parent="zV2OYzbl4k-OQZT1_3WD-155">
          <mxGeometry width="50" height="50" relative="1" as="geometry">
            <mxPoint x="110" y="160" as="sourcePoint" />
            <mxPoint x="110" as="targetPoint" />
          </mxGeometry>
        </mxCell>
        <mxCell id="zV2OYzbl4k-OQZT1_3WD-159" value="" style="endArrow=none;html=1;rounded=0;entryX=1;entryY=0.25;entryDx=0;entryDy=0;exitX=0;exitY=0.25;exitDx=0;exitDy=0;" edge="1" parent="zV2OYzbl4k-OQZT1_3WD-155">
          <mxGeometry width="50" height="50" relative="1" as="geometry">
            <mxPoint y="50" as="sourcePoint" />
            <mxPoint x="160" y="50" as="targetPoint" />
          </mxGeometry>
        </mxCell>
        <mxCell id="zV2OYzbl4k-OQZT1_3WD-160" value="" style="endArrow=none;html=1;rounded=0;entryX=1;entryY=0.25;entryDx=0;entryDy=0;exitX=0;exitY=0.25;exitDx=0;exitDy=0;" edge="1" parent="zV2OYzbl4k-OQZT1_3WD-155">
          <mxGeometry width="50" height="50" relative="1" as="geometry">
            <mxPoint y="110" as="sourcePoint" />
            <mxPoint x="160" y="110" as="targetPoint" />
          </mxGeometry>
        </mxCell>
        <mxCell id="zV2OYzbl4k-OQZT1_3WD-161" value="1" style="text;html=1;strokeColor=none;fillColor=none;align=center;verticalAlign=middle;whiteSpace=wrap;rounded=0;" vertex="1" parent="zV2OYzbl4k-OQZT1_3WD-155">
          <mxGeometry width="50" height="50" as="geometry" />
        </mxCell>
        <mxCell id="zV2OYzbl4k-OQZT1_3WD-162" value="4" style="text;html=1;strokeColor=none;fillColor=none;align=center;verticalAlign=middle;whiteSpace=wrap;rounded=0;" vertex="1" parent="zV2OYzbl4k-OQZT1_3WD-155">
          <mxGeometry x="110" width="50" height="50" as="geometry" />
        </mxCell>
        <mxCell id="zV2OYzbl4k-OQZT1_3WD-163" value="0" style="text;html=1;strokeColor=none;fillColor=none;align=center;verticalAlign=middle;whiteSpace=wrap;rounded=0;" vertex="1" parent="zV2OYzbl4k-OQZT1_3WD-155">
          <mxGeometry x="55" y="55" width="50" height="50" as="geometry" />
        </mxCell>
        <mxCell id="zV2OYzbl4k-OQZT1_3WD-164" value="26" style="text;html=1;strokeColor=none;fillColor=none;align=center;verticalAlign=middle;whiteSpace=wrap;rounded=0;" vertex="1" parent="zV2OYzbl4k-OQZT1_3WD-155">
          <mxGeometry y="55" width="50" height="50" as="geometry" />
        </mxCell>
        <mxCell id="zV2OYzbl4k-OQZT1_3WD-165" value="30" style="text;html=1;strokeColor=none;fillColor=none;align=center;verticalAlign=middle;whiteSpace=wrap;rounded=0;" vertex="1" parent="zV2OYzbl4k-OQZT1_3WD-155">
          <mxGeometry x="110" y="50" width="50" height="55" as="geometry" />
        </mxCell>
        <mxCell id="zV2OYzbl4k-OQZT1_3WD-166" value="26" style="text;html=1;strokeColor=none;fillColor=none;align=center;verticalAlign=middle;whiteSpace=wrap;rounded=0;" vertex="1" parent="zV2OYzbl4k-OQZT1_3WD-155">
          <mxGeometry y="110" width="50" height="50" as="geometry" />
        </mxCell>
        <mxCell id="zV2OYzbl4k-OQZT1_3WD-167" value="0" style="text;html=1;strokeColor=none;fillColor=none;align=center;verticalAlign=middle;whiteSpace=wrap;rounded=0;" vertex="1" parent="zV2OYzbl4k-OQZT1_3WD-155">
          <mxGeometry x="55" y="110" width="50" height="50" as="geometry" />
        </mxCell>
        <mxCell id="zV2OYzbl4k-OQZT1_3WD-168" value="30" style="text;html=1;strokeColor=none;fillColor=none;align=center;verticalAlign=middle;whiteSpace=wrap;rounded=0;" vertex="1" parent="zV2OYzbl4k-OQZT1_3WD-155">
          <mxGeometry x="110" y="110" width="50" height="50" as="geometry" />
        </mxCell>
        <mxCell id="zV2OYzbl4k-OQZT1_3WD-169" style="edgeStyle=orthogonalEdgeStyle;rounded=0;orthogonalLoop=1;jettySize=auto;html=1;entryX=0;entryY=0.5;entryDx=0;entryDy=0;" edge="1" parent="1" source="zV2OYzbl4k-OQZT1_3WD-148" target="zV2OYzbl4k-OQZT1_3WD-164">
          <mxGeometry relative="1" as="geometry" />
        </mxCell>
        <mxCell id="zV2OYzbl4k-OQZT1_3WD-170" style="edgeStyle=orthogonalEdgeStyle;rounded=0;orthogonalLoop=1;jettySize=auto;html=1;entryX=0;entryY=0.5;entryDx=0;entryDy=0;" edge="1" parent="1" source="zV2OYzbl4k-OQZT1_3WD-29" target="zV2OYzbl4k-OQZT1_3WD-71">
          <mxGeometry relative="1" as="geometry" />
        </mxCell>
        <mxCell id="zV2OYzbl4k-OQZT1_3WD-171" style="edgeStyle=orthogonalEdgeStyle;rounded=0;orthogonalLoop=1;jettySize=auto;html=1;entryX=0;entryY=0.5;entryDx=0;entryDy=0;" edge="1" parent="1" source="zV2OYzbl4k-OQZT1_3WD-29" target="zV2OYzbl4k-OQZT1_3WD-58">
          <mxGeometry relative="1" as="geometry" />
        </mxCell>
      </root>
    </mxGraphModel>
  </diagram>
</mxfile>
